<?xml version="1.0" encoding="UTF-8"?>
<svg version="1.1" xmlns="http://www.w3.org/2000/svg" width="640" height="640">
<path d="M0 0 C211.2 0 422.4 0 640 0 C640 211.2 640 422.4 640 640 C428.8 640 217.6 640 0 640 C0 428.8 0 217.6 0 0 Z " fill="#011B26" transform="translate(0,0)"/>
<path d="M0 0 C3.3 0 6.6 0 10 0 C10 9.9 10 19.8 10 30 C13.3 30 16.6 30 20 30 C20 46.5 20 63 20 80 C23.3 80 26.6 80 30 80 C30 93.2 30 106.4 30 120 C33.3 120 36.6 120 40 120 C40 123.3 40 126.6 40 130 C43.3 130 46.6 130 50 130 C50 126.7 50 123.4 50 120 C53.3 120 56.6 120 60 120 C60 106.8 60 93.6 60 80 C63.3 80 66.6 80 70 80 C70 70.1 70 60.2 70 50 C73.3 50 76.6 50 80 50 C80 40.1 80 30.2 80 20 C83.3 20 86.6 20 90 20 C90 23.3 90 26.6 90 30 C93.3 30 96.6 30 100 30 C100 33.3 100 36.6 100 40 C103.3 40 106.6 40 110 40 C110 43.3 110 46.6 110 50 C119.9 50 129.8 50 140 50 C140 46.7 140 43.4 140 40 C143.3 40 146.6 40 150 40 C150 36.7 150 33.4 150 30 C153.3 30 156.6 30 160 30 C160 36.6 160 43.2 160 50 C163.3 50 166.6 50 170 50 C170 59.9 170 69.8 170 80 C173.3 80 176.6 80 180 80 C180 93.2 180 106.4 180 120 C183.3 120 186.6 120 190 120 C190 123.3 190 126.6 190 130 C193.3 130 196.6 130 200 130 C200 126.7 200 123.4 200 120 C203.3 120 206.6 120 210 120 C210 106.8 210 93.6 210 80 C213.3 80 216.6 80 220 80 C220 63.5 220 47 220 30 C223.3 30 226.6 30 230 30 C230 20.1 230 10.2 230 0 C233.3 0 236.6 0 240 0 C240 3.3 240 6.6 240 10 C243.3 10 246.6 10 250 10 C250 16.6 250 23.2 250 30 C253.3 30 256.6 30 260 30 C260 33.3 260 36.6 260 40 C263.3 40 266.6 40 270 40 C270 46.6 270 53.2 270 60 C273.3 60 276.6 60 280 60 C280 69.9 280 79.8 280 90 C283.3 90 286.6 90 290 90 C290 99.9 290 109.8 290 120 C293.3 120 296.6 120 300 120 C300 113.4 300 106.8 300 100 C303.3 100 306.6 100 310 100 C310 90.1 310 80.2 310 70 C316.6 70 323.2 70 330 70 C330 112.9 330 155.8 330 200 C323.4 200 316.8 200 310 200 C310 196.7 310 193.4 310 190 C306.7 190 303.4 190 300 190 C300 186.7 300 183.4 300 180 C290.1 180 280.2 180 270 180 C270 189.9 270 199.8 270 210 C266.7 210 263.4 210 260 210 C260 216.6 260 223.2 260 230 C256.7 230 253.4 230 250 230 C250 239.9 250 249.8 250 260 C246.7 260 243.4 260 240 260 C240 236.9 240 213.8 240 190 C236.7 190 233.4 190 230 190 C230 180.1 230 170.2 230 160 C220.1 160 210.2 160 200 160 C200 156.7 200 153.4 200 150 C193.4 150 186.8 150 180 150 C180 146.7 180 143.4 180 140 C173.4 140 166.8 140 160 140 C160 143.3 160 146.6 160 150 C156.7 150 153.4 150 150 150 C150 183 150 216 150 250 C146.7 250 143.4 250 140 250 C140 259.9 140 269.8 140 280 C136.7 280 133.4 280 130 280 C130 289.9 130 299.8 130 310 C136.6 310 143.2 310 150 310 C150 313.3 150 316.6 150 320 C156.6 320 163.2 320 170 320 C170 323.3 170 326.6 170 330 C176.6 330 183.2 330 190 330 C190 326.7 190 323.4 190 320 C193.3 320 196.6 320 200 320 C200 306.8 200 293.6 200 280 C203.3 280 206.6 280 210 280 C210 299.8 210 319.6 210 340 C216.6 340 223.2 340 230 340 C230 336.7 230 333.4 230 330 C236.6 330 243.2 330 250 330 C250 326.7 250 323.4 250 320 C253.3 320 256.6 320 260 320 C260 316.7 260 313.4 260 310 C263.3 310 266.6 310 270 310 C270 306.7 270 303.4 270 300 C273.3 300 276.6 300 280 300 C280 313.2 280 326.4 280 340 C276.7 340 273.4 340 270 340 C270 346.6 270 353.2 270 360 C273.3 360 276.6 360 280 360 C280 363.3 280 366.6 280 370 C289.9 370 299.8 370 310 370 C310 373.3 310 376.6 310 380 C316.6 380 323.2 380 330 380 C330 366.8 330 353.6 330 340 C333.3 340 336.6 340 340 340 C340 320.2 340 300.4 340 280 C343.3 280 346.6 280 350 280 C350 270.1 350 260.2 350 250 C353.3 250 356.6 250 360 250 C360 243.4 360 236.8 360 230 C363.3 230 366.6 230 370 230 C370 220.1 370 210.2 370 200 C373.3 200 376.6 200 380 200 C380 216.5 380 233 380 250 C383.3 250 386.6 250 390 250 C390 246.7 390 243.4 390 240 C393.3 240 396.6 240 400 240 C400 230.1 400 220.2 400 210 C403.3 210 406.6 210 410 210 C410 200.1 410 190.2 410 180 C413.3 180 416.6 180 420 180 C420 209.7 420 239.4 420 270 C416.7 270 413.4 270 410 270 C410 283.2 410 296.4 410 310 C403.4 310 396.8 310 390 310 C390 316.6 390 323.2 390 330 C386.7 330 383.4 330 380 330 C380 336.6 380 343.2 380 350 C376.7 350 373.4 350 370 350 C370 356.6 370 363.2 370 370 C366.7 370 363.4 370 360 370 C360 373.3 360 376.6 360 380 C356.7 380 353.4 380 350 380 C350 383.3 350 386.6 350 390 C346.7 390 343.4 390 340 390 C340 399.9 340 409.8 340 420 C336.7 420 333.4 420 330 420 C330 423.3 330 426.6 330 430 C326.7 430 323.4 430 320 430 C320 436.6 320 443.2 320 450 C316.7 450 313.4 450 310 450 C310 440.1 310 430.2 310 420 C313.3 420 316.6 420 320 420 C320 413.4 320 406.8 320 400 C316.7 400 313.4 400 310 400 C310 403.3 310 406.6 310 410 C306.7 410 303.4 410 300 410 C300 416.6 300 423.2 300 430 C293.4 430 286.8 430 280 430 C280 436.6 280 443.2 280 450 C276.7 450 273.4 450 270 450 C270 453.3 270 456.6 270 460 C263.4 460 256.8 460 250 460 C250 440.2 250 420.4 250 400 C246.7 400 243.4 400 240 400 C240 406.6 240 413.2 240 420 C236.7 420 233.4 420 230 420 C230 433.2 230 446.4 230 460 C226.7 460 223.4 460 220 460 C220 446.8 220 433.6 220 420 C216.7 420 213.4 420 210 420 C210 423.3 210 426.6 210 430 C206.7 430 203.4 430 200 430 C200 433.3 200 436.6 200 440 C196.7 440 193.4 440 190 440 C190 446.6 190 453.2 190 460 C186.7 460 183.4 460 180 460 C180 436.9 180 413.8 180 390 C173.4 390 166.8 390 160 390 C160 399.9 160 409.8 160 420 C156.7 420 153.4 420 150 420 C150 429.9 150 439.8 150 450 C146.7 450 143.4 450 140 450 C140 440.1 140 430.2 140 420 C136.7 420 133.4 420 130 420 C130 403.5 130 387 130 370 C123.4 370 116.8 370 110 370 C110 386.5 110 403 110 420 C106.7 420 103.4 420 100 420 C100 429.9 100 439.8 100 450 C96.7 450 93.4 450 90 450 C90 440.1 90 430.2 90 420 C86.7 420 83.4 420 80 420 C80 410.1 80 400.2 80 390 C73.4 390 66.8 390 60 390 C60 413.1 60 436.2 60 460 C56.7 460 53.4 460 50 460 C50 453.4 50 446.8 50 440 C46.7 440 43.4 440 40 440 C40 436.7 40 433.4 40 430 C36.7 430 33.4 430 30 430 C30 426.7 30 423.4 30 420 C26.7 420 23.4 420 20 420 C20 433.2 20 446.4 20 460 C16.7 460 13.4 460 10 460 C10 446.8 10 433.6 10 420 C6.7 420 3.4 420 0 420 C0 413.4 0 406.8 0 400 C-3.3 400 -6.6 400 -10 400 C-10 419.8 -10 439.6 -10 460 C-16.6 460 -23.2 460 -30 460 C-30 456.7 -30 453.4 -30 450 C-33.3 450 -36.6 450 -40 450 C-40 443.4 -40 436.8 -40 430 C-46.6 430 -53.2 430 -60 430 C-60 423.4 -60 416.8 -60 410 C-63.3 410 -66.6 410 -70 410 C-70 406.7 -70 403.4 -70 400 C-73.3 400 -76.6 400 -80 400 C-80 406.6 -80 413.2 -80 420 C-76.7 420 -73.4 420 -70 420 C-70 429.9 -70 439.8 -70 450 C-73.3 450 -76.6 450 -80 450 C-80 443.4 -80 436.8 -80 430 C-83.3 430 -86.6 430 -90 430 C-90 426.7 -90 423.4 -90 420 C-93.3 420 -96.6 420 -100 420 C-100 410.1 -100 400.2 -100 390 C-103.3 390 -106.6 390 -110 390 C-110 386.7 -110 383.4 -110 380 C-113.3 380 -116.6 380 -120 380 C-120 376.7 -120 373.4 -120 370 C-123.3 370 -126.6 370 -130 370 C-130 363.4 -130 356.8 -130 350 C-133.3 350 -136.6 350 -140 350 C-140 343.4 -140 336.8 -140 330 C-143.3 330 -146.6 330 -150 330 C-150 323.4 -150 316.8 -150 310 C-156.6 310 -163.2 310 -170 310 C-170 296.8 -170 283.6 -170 270 C-173.3 270 -176.6 270 -180 270 C-180 240.3 -180 210.6 -180 180 C-176.7 180 -173.4 180 -170 180 C-170 189.9 -170 199.8 -170 210 C-166.7 210 -163.4 210 -160 210 C-160 219.9 -160 229.8 -160 240 C-156.7 240 -153.4 240 -150 240 C-150 243.3 -150 246.6 -150 250 C-146.7 250 -143.4 250 -140 250 C-140 233.5 -140 217 -140 200 C-136.7 200 -133.4 200 -130 200 C-130 209.9 -130 219.8 -130 230 C-126.7 230 -123.4 230 -120 230 C-120 236.6 -120 243.2 -120 250 C-116.7 250 -113.4 250 -110 250 C-110 259.9 -110 269.8 -110 280 C-106.7 280 -103.4 280 -100 280 C-100 299.8 -100 319.6 -100 340 C-96.7 340 -93.4 340 -90 340 C-90 353.2 -90 366.4 -90 380 C-83.4 380 -76.8 380 -70 380 C-70 376.7 -70 373.4 -70 370 C-60.1 370 -50.2 370 -40 370 C-40 366.7 -40 363.4 -40 360 C-36.7 360 -33.4 360 -30 360 C-30 353.4 -30 346.8 -30 340 C-33.3 340 -36.6 340 -40 340 C-40 326.8 -40 313.6 -40 300 C-36.7 300 -33.4 300 -30 300 C-30 303.3 -30 306.6 -30 310 C-26.7 310 -23.4 310 -20 310 C-20 313.3 -20 316.6 -20 320 C-16.7 320 -13.4 320 -10 320 C-10 323.3 -10 326.6 -10 330 C-3.4 330 3.2 330 10 330 C10 333.3 10 336.6 10 340 C16.6 340 23.2 340 30 340 C30 320.2 30 300.4 30 280 C33.3 280 36.6 280 40 280 C40 293.2 40 306.4 40 320 C43.3 320 46.6 320 50 320 C50 323.3 50 326.6 50 330 C56.6 330 63.2 330 70 330 C70 326.7 70 323.4 70 320 C76.6 320 83.2 320 90 320 C90 316.7 90 313.4 90 310 C96.6 310 103.2 310 110 310 C110 300.1 110 290.2 110 280 C106.7 280 103.4 280 100 280 C100 270.1 100 260.2 100 250 C96.7 250 93.4 250 90 250 C90 217 90 184 90 150 C86.7 150 83.4 150 80 150 C80 146.7 80 143.4 80 140 C73.4 140 66.8 140 60 140 C60 143.3 60 146.6 60 150 C53.4 150 46.8 150 40 150 C40 153.3 40 156.6 40 160 C30.1 160 20.2 160 10 160 C10 169.9 10 179.8 10 190 C6.7 190 3.4 190 0 190 C0 213.1 0 236.2 0 260 C-3.3 260 -6.6 260 -10 260 C-10 250.1 -10 240.2 -10 230 C-13.3 230 -16.6 230 -20 230 C-20 223.4 -20 216.8 -20 210 C-23.3 210 -26.6 210 -30 210 C-30 200.1 -30 190.2 -30 180 C-39.9 180 -49.8 180 -60 180 C-60 183.3 -60 186.6 -60 190 C-63.3 190 -66.6 190 -70 190 C-70 193.3 -70 196.6 -70 200 C-76.6 200 -83.2 200 -90 200 C-90 157.1 -90 114.2 -90 70 C-83.4 70 -76.8 70 -70 70 C-70 79.9 -70 89.8 -70 100 C-66.7 100 -63.4 100 -60 100 C-60 106.6 -60 113.2 -60 120 C-56.7 120 -53.4 120 -50 120 C-50 110.1 -50 100.2 -50 90 C-46.7 90 -43.4 90 -40 90 C-40 80.1 -40 70.2 -40 60 C-36.7 60 -33.4 60 -30 60 C-30 53.4 -30 46.8 -30 40 C-26.7 40 -23.4 40 -20 40 C-20 36.7 -20 33.4 -20 30 C-16.7 30 -13.4 30 -10 30 C-10 23.4 -10 16.8 -10 10 C-6.7 10 -3.4 10 0 10 C0 6.7 0 3.4 0 0 Z " fill="#000000" transform="translate(200,70)"/>
<path d="M0 0 C9.9 0 19.8 0 30 0 C30 6.6 30 13.2 30 20 C33.3 20 36.6 20 40 20 C40 23.3 40 26.6 40 30 C43.3 30 46.6 30 50 30 C50 43.2 50 56.4 50 70 C53.3 70 56.6 70 60 70 C60 79.9 60 89.8 60 100 C53.4 100 46.8 100 40 100 C40 103.3 40 106.6 40 110 C36.7 110 33.4 110 30 110 C30 113.3 30 116.6 30 120 C20.1 120 10.2 120 0 120 C0 116.7 0 113.4 0 110 C-3.3 110 -6.6 110 -10 110 C-10 106.7 -10 103.4 -10 100 C-13.3 100 -16.6 100 -20 100 C-20 96.7 -20 93.4 -20 90 C-23.3 90 -26.6 90 -30 90 C-30 99.9 -30 109.8 -30 120 C-33.3 120 -36.6 120 -40 120 C-40 129.9 -40 139.8 -40 150 C-43.3 150 -46.6 150 -50 150 C-50 163.2 -50 176.4 -50 190 C-53.3 190 -56.6 190 -60 190 C-60 193.3 -60 196.6 -60 200 C-63.3 200 -66.6 200 -70 200 C-70 196.7 -70 193.4 -70 190 C-73.3 190 -76.6 190 -80 190 C-80 176.8 -80 163.6 -80 150 C-83.3 150 -86.6 150 -90 150 C-90 133.5 -90 117 -90 100 C-93.3 100 -96.6 100 -100 100 C-100 90.1 -100 80.2 -100 70 C-103.3 70 -106.6 70 -110 70 C-110 73.3 -110 76.6 -110 80 C-113.3 80 -116.6 80 -120 80 C-120 86.6 -120 93.2 -120 100 C-123.3 100 -126.6 100 -130 100 C-130 103.3 -130 106.6 -130 110 C-133.3 110 -136.6 110 -140 110 C-140 116.6 -140 123.2 -140 130 C-143.3 130 -146.6 130 -150 130 C-150 139.9 -150 149.8 -150 160 C-153.3 160 -156.6 160 -160 160 C-160 169.9 -160 179.8 -160 190 C-163.3 190 -166.6 190 -170 190 C-170 183.4 -170 176.8 -170 170 C-173.3 170 -176.6 170 -180 170 C-180 160.1 -180 150.2 -180 140 C-186.6 140 -193.2 140 -200 140 C-200 182.9 -200 225.8 -200 270 C-193.4 270 -186.8 270 -180 270 C-180 266.7 -180 263.4 -180 260 C-176.7 260 -173.4 260 -170 260 C-170 256.7 -170 253.4 -170 250 C-160.1 250 -150.2 250 -140 250 C-140 259.9 -140 269.8 -140 280 C-136.7 280 -133.4 280 -130 280 C-130 286.6 -130 293.2 -130 300 C-126.7 300 -123.4 300 -120 300 C-120 309.9 -120 319.8 -120 330 C-116.7 330 -113.4 330 -110 330 C-110 306.9 -110 283.8 -110 260 C-106.7 260 -103.4 260 -100 260 C-100 250.1 -100 240.2 -100 230 C-90.1 230 -80.2 230 -70 230 C-70 226.7 -70 223.4 -70 220 C-63.4 220 -56.8 220 -50 220 C-50 216.7 -50 213.4 -50 210 C-43.4 210 -36.8 210 -30 210 C-30 213.3 -30 216.6 -30 220 C-26.7 220 -23.4 220 -20 220 C-20 253 -20 286 -20 320 C-16.7 320 -13.4 320 -10 320 C-10 329.9 -10 339.8 -10 350 C-6.7 350 -3.4 350 0 350 C0 359.9 0 369.8 0 380 C-6.6 380 -13.2 380 -20 380 C-20 383.3 -20 386.6 -20 390 C-26.6 390 -33.2 390 -40 390 C-40 393.3 -40 396.6 -40 400 C-46.6 400 -53.2 400 -60 400 C-60 396.7 -60 393.4 -60 390 C-63.3 390 -66.6 390 -70 390 C-70 376.8 -70 363.6 -70 350 C-73.3 350 -76.6 350 -80 350 C-80 369.8 -80 389.6 -80 410 C-86.6 410 -93.2 410 -100 410 C-100 406.7 -100 403.4 -100 400 C-106.6 400 -113.2 400 -120 400 C-120 396.7 -120 393.4 -120 390 C-123.3 390 -126.6 390 -130 390 C-130 386.7 -130 383.4 -130 380 C-133.3 380 -136.6 380 -140 380 C-140 376.7 -140 373.4 -140 370 C-143.3 370 -146.6 370 -150 370 C-150 383.2 -150 396.4 -150 410 C-146.7 410 -143.4 410 -140 410 C-140 416.6 -140 423.2 -140 430 C-143.3 430 -146.6 430 -150 430 C-150 433.3 -150 436.6 -150 440 C-159.9 440 -169.8 440 -180 440 C-180 443.3 -180 446.6 -180 450 C-186.6 450 -193.2 450 -200 450 C-200 436.8 -200 423.6 -200 410 C-203.3 410 -206.6 410 -210 410 C-210 390.2 -210 370.4 -210 350 C-213.3 350 -216.6 350 -220 350 C-220 340.1 -220 330.2 -220 320 C-223.3 320 -226.6 320 -230 320 C-230 313.4 -230 306.8 -230 300 C-233.3 300 -236.6 300 -240 300 C-240 290.1 -240 280.2 -240 270 C-243.3 270 -246.6 270 -250 270 C-250 260.1 -250 250.2 -250 240 C-253.3 240 -256.6 240 -260 240 C-260 226.8 -260 213.6 -260 200 C-263.3 200 -266.6 200 -270 200 C-270 186.8 -270 173.6 -270 160 C-273.3 160 -276.6 160 -280 160 C-280 156.7 -280 153.4 -280 150 C-276.7 150 -273.4 150 -270 150 C-270 146.7 -270 143.4 -270 140 C-256.8 140 -243.6 140 -230 140 C-230 136.7 -230 133.4 -230 130 C-220.1 130 -210.2 130 -200 130 C-200 126.7 -200 123.4 -200 120 C-196.7 120 -193.4 120 -190 120 C-190 116.7 -190 113.4 -190 110 C-186.7 110 -183.4 110 -180 110 C-180 106.7 -180 103.4 -180 100 C-176.7 100 -173.4 100 -170 100 C-170 96.7 -170 93.4 -170 90 C-166.7 90 -163.4 90 -160 90 C-160 86.7 -160 83.4 -160 80 C-153.4 80 -146.8 80 -140 80 C-140 76.7 -140 73.4 -140 70 C-133.4 70 -126.8 70 -120 70 C-120 66.7 -120 63.4 -120 60 C-103.5 60 -87 60 -70 60 C-70 56.7 -70 53.4 -70 50 C-60.1 50 -50.2 50 -40 50 C-40 46.7 -40 43.4 -40 40 C-33.4 40 -26.8 40 -20 40 C-20 36.7 -20 33.4 -20 30 C-13.4 30 -6.8 30 0 30 C0 20.1 0 10.2 0 0 Z " fill="#1C2E36" transform="translate(310,0)"/>
<path d="M0 0 C6.6 0 13.2 0 20 0 C20 3.3 20 6.6 20 10 C26.6 10 33.2 10 40 10 C40 13.3 40 16.6 40 20 C49.9 20 59.8 20 70 20 C70 29.9 70 39.8 70 50 C73.3 50 76.6 50 80 50 C80 73.1 80 96.2 80 120 C83.3 120 86.6 120 90 120 C90 110.1 90 100.2 90 90 C93.3 90 96.6 90 100 90 C100 83.4 100 76.8 100 70 C103.3 70 106.6 70 110 70 C110 60.1 110 50.2 110 40 C119.9 40 129.8 40 140 40 C140 43.3 140 46.6 140 50 C143.3 50 146.6 50 150 50 C150 53.3 150 56.6 150 60 C156.6 60 163.2 60 170 60 C170 93 170 126 170 160 C173.3 160 176.6 160 180 160 C180 173.2 180 186.4 180 200 C176.7 200 173.4 200 170 200 C170 213.2 170 226.4 170 240 C163.4 240 156.8 240 150 240 C150 236.7 150 233.4 150 230 C140.1 230 130.2 230 120 230 C120 226.7 120 223.4 120 220 C116.7 220 113.4 220 110 220 C110 213.4 110 206.8 110 200 C113.3 200 116.6 200 120 200 C120 186.8 120 173.6 120 160 C116.7 160 113.4 160 110 160 C110 163.3 110 166.6 110 170 C106.7 170 103.4 170 100 170 C100 173.3 100 176.6 100 180 C96.7 180 93.4 180 90 180 C90 183.3 90 186.6 90 190 C83.4 190 76.8 190 70 190 C70 193.3 70 196.6 70 200 C63.4 200 56.8 200 50 200 C50 180.2 50 160.4 50 140 C46.7 140 43.4 140 40 140 C40 153.2 40 166.4 40 180 C36.7 180 33.4 180 30 180 C30 183.3 30 186.6 30 190 C23.4 190 16.8 190 10 190 C10 186.7 10 183.4 10 180 C3.4 180 -3.2 180 -10 180 C-10 176.7 -10 173.4 -10 170 C-16.6 170 -23.2 170 -30 170 C-30 160.1 -30 150.2 -30 140 C-26.7 140 -23.4 140 -20 140 C-20 130.1 -20 120.2 -20 110 C-16.7 110 -13.4 110 -10 110 C-10 77 -10 44 -10 10 C-6.7 10 -3.4 10 0 10 C0 6.7 0 3.4 0 0 Z " fill="#2E8299" transform="translate(360,210)"/>
<path d="M0 0 C6.6 0 13.2 0 20 0 C20 3.3 20 6.6 20 10 C23.3 10 26.6 10 30 10 C30 43 30 76 30 110 C33.3 110 36.6 110 40 110 C40 119.9 40 129.8 40 140 C43.3 140 46.6 140 50 140 C50 149.9 50 159.8 50 170 C43.4 170 36.8 170 30 170 C30 173.3 30 176.6 30 180 C23.4 180 16.8 180 10 180 C10 183.3 10 186.6 10 190 C3.4 190 -3.2 190 -10 190 C-10 186.7 -10 183.4 -10 180 C-13.3 180 -16.6 180 -20 180 C-20 166.8 -20 153.6 -20 140 C-23.3 140 -26.6 140 -30 140 C-30 159.8 -30 179.6 -30 200 C-36.6 200 -43.2 200 -50 200 C-50 196.7 -50 193.4 -50 190 C-56.6 190 -63.2 190 -70 190 C-70 186.7 -70 183.4 -70 180 C-73.3 180 -76.6 180 -80 180 C-80 176.7 -80 173.4 -80 170 C-83.3 170 -86.6 170 -90 170 C-90 166.7 -90 163.4 -90 160 C-93.3 160 -96.6 160 -100 160 C-100 173.2 -100 186.4 -100 200 C-96.7 200 -93.4 200 -90 200 C-90 206.6 -90 213.2 -90 220 C-93.3 220 -96.6 220 -100 220 C-100 223.3 -100 226.6 -100 230 C-109.9 230 -119.8 230 -130 230 C-130 233.3 -130 236.6 -130 240 C-136.6 240 -143.2 240 -150 240 C-150 226.8 -150 213.6 -150 200 C-153.3 200 -156.6 200 -160 200 C-160 186.8 -160 173.6 -160 160 C-156.7 160 -153.4 160 -150 160 C-150 127 -150 94 -150 60 C-143.4 60 -136.8 60 -130 60 C-130 56.7 -130 53.4 -130 50 C-126.7 50 -123.4 50 -120 50 C-120 46.7 -120 43.4 -120 40 C-110.1 40 -100.2 40 -90 40 C-90 49.9 -90 59.8 -90 70 C-86.7 70 -83.4 70 -80 70 C-80 76.6 -80 83.2 -80 90 C-76.7 90 -73.4 90 -70 90 C-70 99.9 -70 109.8 -70 120 C-66.7 120 -63.4 120 -60 120 C-60 96.9 -60 73.8 -60 50 C-56.7 50 -53.4 50 -50 50 C-50 40.1 -50 30.2 -50 20 C-40.1 20 -30.2 20 -20 20 C-20 16.7 -20 13.4 -20 10 C-13.4 10 -6.8 10 0 10 C0 6.7 0 3.4 0 0 Z " fill="#2E8299" transform="translate(260,210)"/>
<path d="M0 0 C3.3 0 6.6 0 10 0 C10 3.3 10 6.6 10 10 C19.9 10 29.8 10 40 10 C40 13.3 40 16.6 40 20 C56.5 20 73 20 90 20 C90 23.3 90 26.6 90 30 C96.6 30 103.2 30 110 30 C110 33.3 110 36.6 110 40 C116.6 40 123.2 40 130 40 C130 43.3 130 46.6 130 50 C133.3 50 136.6 50 140 50 C140 53.3 140 56.6 140 60 C143.3 60 146.6 60 150 60 C150 63.3 150 66.6 150 70 C153.3 70 156.6 70 160 70 C160 73.3 160 76.6 160 80 C163.3 80 166.6 80 170 80 C170 83.3 170 86.6 170 90 C179.9 90 189.8 90 200 90 C200 93.3 200 96.6 200 100 C213.2 100 226.4 100 240 100 C240 103.3 240 106.6 240 110 C243.3 110 246.6 110 250 110 C250 113.3 250 116.6 250 120 C246.7 120 243.4 120 240 120 C240 133.2 240 146.4 240 160 C236.7 160 233.4 160 230 160 C230 173.2 230 186.4 230 200 C226.7 200 223.4 200 220 200 C220 209.9 220 219.8 220 230 C216.7 230 213.4 230 210 230 C210 239.9 210 249.8 210 260 C206.7 260 203.4 260 200 260 C200 266.6 200 273.2 200 280 C196.7 280 193.4 280 190 280 C190 289.9 190 299.8 190 310 C186.7 310 183.4 310 180 310 C180 316.6 180 323.2 180 330 C176.7 330 173.4 330 170 330 C170 254.1 170 178.2 170 100 C163.4 100 156.8 100 150 100 C150 109.9 150 119.8 150 130 C146.7 130 143.4 130 140 130 C140 136.6 140 143.2 140 150 C136.7 150 133.4 150 130 150 C130 140.1 130 130.2 130 120 C126.7 120 123.4 120 120 120 C120 110.1 120 100.2 120 90 C116.7 90 113.4 90 110 90 C110 83.4 110 76.8 110 70 C106.7 70 103.4 70 100 70 C100 66.7 100 63.4 100 60 C96.7 60 93.4 60 90 60 C90 53.4 90 46.8 90 40 C86.7 40 83.4 40 80 40 C80 36.7 80 33.4 80 30 C76.7 30 73.4 30 70 30 C70 39.9 70 49.8 70 60 C66.7 60 63.4 60 60 60 C60 76.5 60 93 60 110 C56.7 110 53.4 110 50 110 C50 123.2 50 136.4 50 150 C46.7 150 43.4 150 40 150 C40 153.3 40 156.6 40 160 C36.7 160 33.4 160 30 160 C30 156.7 30 153.4 30 150 C26.7 150 23.4 150 20 150 C20 136.8 20 123.6 20 110 C16.7 110 13.4 110 10 110 C10 100.1 10 90.2 10 80 C6.7 80 3.4 80 0 80 C0 73.4 0 66.8 0 60 C3.3 60 6.6 60 10 60 C10 50.1 10 40.2 10 30 C6.7 30 3.4 30 0 30 C0 20.1 0 10.2 0 0 Z " fill="#1C2E36" transform="translate(360,40)"/>
<path d="M0 0 C6.6 0 13.2 0 20 0 C20 3.3 20 6.6 20 10 C26.6 10 33.2 10 40 10 C40 13.3 40 16.6 40 20 C49.9 20 59.8 20 70 20 C70 29.9 70 39.8 70 50 C73.3 50 76.6 50 80 50 C80 69.8 80 89.6 80 110 C66.8 110 53.6 110 40 110 C40 106.7 40 103.4 40 100 C30.1 100 20.2 100 10 100 C10 96.7 10 93.4 10 90 C3.4 90 -3.2 90 -10 90 C-10 63.6 -10 37.2 -10 10 C-6.7 10 -3.4 10 0 10 C0 6.7 0 3.4 0 0 Z " fill="#7ACBFA" transform="translate(360,210)"/>
<path d="M0 0 C6.6 0 13.2 0 20 0 C20 3.3 20 6.6 20 10 C23.3 10 26.6 10 30 10 C30 36.4 30 62.8 30 90 C23.4 90 16.8 90 10 90 C10 93.3 10 96.6 10 100 C0.1 100 -9.8 100 -20 100 C-20 103.3 -20 106.6 -20 110 C-33.2 110 -46.4 110 -60 110 C-60 90.2 -60 70.4 -60 50 C-56.7 50 -53.4 50 -50 50 C-50 40.1 -50 30.2 -50 20 C-40.1 20 -30.2 20 -20 20 C-20 16.7 -20 13.4 -20 10 C-13.4 10 -6.8 10 0 10 C0 6.7 0 3.4 0 0 Z " fill="#7ACBFA" transform="translate(260,210)"/>
<path d="M0 0 C9.9 0 19.8 0 30 0 C30 3.3 30 6.6 30 10 C33.3 10 36.6 10 40 10 C40 13.3 40 16.6 40 20 C46.6 20 53.2 20 60 20 C60 49.7 60 79.4 60 110 C56.7 110 53.4 110 50 110 C50 106.7 50 103.4 50 100 C40.1 100 30.2 100 20 100 C20 96.7 20 93.4 20 90 C13.4 90 6.8 90 0 90 C0 86.7 0 83.4 0 80 C-6.6 80 -13.2 80 -20 80 C-20 70.1 -20 60.2 -20 50 C-16.7 50 -13.4 50 -10 50 C-10 43.4 -10 36.8 -10 30 C-6.7 30 -3.4 30 0 30 C0 20.1 0 10.2 0 0 Z " fill="#7ACBFA" transform="translate(470,250)"/>
<path d="M0 0 C9.9 0 19.8 0 30 0 C30 9.9 30 19.8 30 30 C33.3 30 36.6 30 40 30 C40 36.6 40 43.2 40 50 C43.3 50 46.6 50 50 50 C50 59.9 50 69.8 50 80 C43.4 80 36.8 80 30 80 C30 83.3 30 86.6 30 90 C23.4 90 16.8 90 10 90 C10 93.3 10 96.6 10 100 C0.1 100 -9.8 100 -20 100 C-20 103.3 -20 106.6 -20 110 C-23.3 110 -26.6 110 -30 110 C-30 80.3 -30 50.6 -30 20 C-23.4 20 -16.8 20 -10 20 C-10 16.7 -10 13.4 -10 10 C-6.7 10 -3.4 10 0 10 C0 6.7 0 3.4 0 0 Z " fill="#7ACBFA" transform="translate(140,250)"/>
<path d="M0 0 C3.3 0 6.6 0 10 0 C10 3.3 10 6.6 10 10 C13.3 10 16.6 10 20 10 C20 13.3 20 16.6 20 20 C23.3 20 26.6 20 30 20 C30 16.7 30 13.4 30 10 C33.3 10 36.6 10 40 10 C40 23.2 40 36.4 40 50 C43.3 50 46.6 50 50 50 C50 59.9 50 69.8 50 80 C43.4 80 36.8 80 30 80 C30 83.3 30 86.6 30 90 C26.7 90 23.4 90 20 90 C20 93.3 20 96.6 20 100 C10.1 100 0.2 100 -10 100 C-10 96.7 -10 93.4 -10 90 C-13.3 90 -16.6 90 -20 90 C-20 86.7 -20 83.4 -20 80 C-23.3 80 -26.6 80 -30 80 C-30 76.7 -30 73.4 -30 70 C-33.3 70 -36.6 70 -40 70 C-40 63.4 -40 56.8 -40 50 C-36.7 50 -33.4 50 -30 50 C-30 43.4 -30 36.8 -30 30 C-26.7 30 -23.4 30 -20 30 C-20 26.7 -20 23.4 -20 20 C-13.4 20 -6.8 20 0 20 C0 13.4 0 6.8 0 0 Z " fill="#7ACBFA" transform="translate(320,20)"/>
<path d="M0 0 C6.6 0 13.2 0 20 0 C20 16.5 20 33 20 50 C23.3 50 26.6 50 30 50 C30 63.2 30 76.4 30 90 C33.3 90 36.6 90 40 90 C40 103.2 40 116.4 40 130 C20.2 130 0.4 130 -20 130 C-20 116.8 -20 103.6 -20 90 C-16.7 90 -13.4 90 -10 90 C-10 76.8 -10 63.6 -10 50 C-6.7 50 -3.4 50 0 50 C0 33.5 0 17 0 0 Z " fill="#1C2E36" transform="translate(310,440)"/>
<path d="M0 0 C3.3 0 6.6 0 10 0 C10 9.9 10 19.8 10 30 C6.7 30 3.4 30 0 30 C0 33.3 0 36.6 0 40 C-3.3 40 -6.6 40 -10 40 C-10 43.3 -10 46.6 -10 50 C-13.3 50 -16.6 50 -20 50 C-20 56.6 -20 63.2 -20 70 C-23.3 70 -26.6 70 -30 70 C-30 76.6 -30 83.2 -30 90 C-33.3 90 -36.6 90 -40 90 C-40 96.6 -40 103.2 -40 110 C-43.3 110 -46.6 110 -50 110 C-50 113.3 -50 116.6 -50 120 C-53.3 120 -56.6 120 -60 120 C-60 126.6 -60 133.2 -60 140 C-79.8 140 -99.6 140 -120 140 C-120 136.7 -120 133.4 -120 130 C-110.1 130 -100.2 130 -90 130 C-90 126.7 -90 123.4 -90 120 C-86.7 120 -83.4 120 -80 120 C-80 116.7 -80 113.4 -80 110 C-76.7 110 -73.4 110 -70 110 C-70 103.4 -70 96.8 -70 90 C-66.7 90 -63.4 90 -60 90 C-60 86.7 -60 83.4 -60 80 C-56.7 80 -53.4 80 -50 80 C-50 76.7 -50 73.4 -50 70 C-46.7 70 -43.4 70 -40 70 C-40 63.4 -40 56.8 -40 50 C-36.7 50 -33.4 50 -30 50 C-30 46.7 -30 43.4 -30 40 C-26.7 40 -23.4 40 -20 40 C-20 33.4 -20 26.8 -20 20 C-16.7 20 -13.4 20 -10 20 C-10 16.7 -10 13.4 -10 10 C-6.7 10 -3.4 10 0 10 C0 6.7 0 3.4 0 0 Z " fill="#003247" transform="translate(610,500)"/>
<path d="M0 0 C3.3 0 6.6 0 10 0 C10 3.3 10 6.6 10 10 C13.3 10 16.6 10 20 10 C20 13.3 20 16.6 20 20 C23.3 20 26.6 20 30 20 C30 26.6 30 33.2 30 40 C33.3 40 36.6 40 40 40 C40 43.3 40 46.6 40 50 C43.3 50 46.6 50 50 50 C50 56.6 50 63.2 50 70 C53.3 70 56.6 70 60 70 C60 73.3 60 76.6 60 80 C63.3 80 66.6 80 70 80 C70 83.3 70 86.6 70 90 C73.3 90 76.6 90 80 90 C80 96.6 80 103.2 80 110 C83.3 110 86.6 110 90 110 C90 113.3 90 116.6 90 120 C93.3 120 96.6 120 100 120 C100 123.3 100 126.6 100 130 C109.9 130 119.8 130 130 130 C130 133.3 130 136.6 130 140 C110.2 140 90.4 140 70 140 C70 133.4 70 126.8 70 120 C66.7 120 63.4 120 60 120 C60 116.7 60 113.4 60 110 C56.7 110 53.4 110 50 110 C50 103.4 50 96.8 50 90 C46.7 90 43.4 90 40 90 C40 83.4 40 76.8 40 70 C36.7 70 33.4 70 30 70 C30 63.4 30 56.8 30 50 C26.7 50 23.4 50 20 50 C20 46.7 20 43.4 20 40 C16.7 40 13.4 40 10 40 C10 36.7 10 33.4 10 30 C6.7 30 3.4 30 0 30 C0 20.1 0 10.2 0 0 Z " fill="#003247" transform="translate(20,500)"/>
<path d="M0 0 C3.3 0 6.6 0 10 0 C10 19.8 10 39.6 10 60 C13.3 60 16.6 60 20 60 C20 69.9 20 79.8 20 90 C16.7 90 13.4 90 10 90 C10 99.9 10 109.8 10 120 C6.7 120 3.4 120 0 120 C0 129.9 0 139.8 0 150 C-3.3 150 -6.6 150 -10 150 C-10 153.3 -10 156.6 -10 160 C-13.3 160 -16.6 160 -20 160 C-20 133.6 -20 107.2 -20 80 C-16.7 80 -13.4 80 -10 80 C-10 66.8 -10 53.6 -10 40 C-6.7 40 -3.4 40 0 40 C0 26.8 0 13.6 0 0 Z " fill="#01131A" transform="translate(600,160)"/>
<path d="M0 0 C3.3 0 6.6 0 10 0 C10 13.2 10 26.4 10 40 C13.3 40 16.6 40 20 40 C20 53.2 20 66.4 20 80 C23.3 80 26.6 80 30 80 C30 106.4 30 132.8 30 160 C26.7 160 23.4 160 20 160 C20 156.7 20 153.4 20 150 C16.7 150 13.4 150 10 150 C10 140.1 10 130.2 10 120 C6.7 120 3.4 120 0 120 C0 110.1 0 100.2 0 90 C-3.3 90 -6.6 90 -10 90 C-10 80.1 -10 70.2 -10 60 C-6.7 60 -3.4 60 0 60 C0 40.2 0 20.4 0 0 Z " fill="#01131A" transform="translate(30,160)"/>
<path d="M0 0 C3.3 0 6.6 0 10 0 C10 13.2 10 26.4 10 40 C13.3 40 16.6 40 20 40 C20 49.9 20 59.8 20 70 C16.7 70 13.4 70 10 70 C10 73.3 10 76.6 10 80 C0.1 80 -9.8 80 -20 80 C-20 76.7 -20 73.4 -20 70 C-29.9 70 -39.8 70 -50 70 C-50 66.7 -50 63.4 -50 60 C-46.7 60 -43.4 60 -40 60 C-40 56.7 -40 53.4 -40 50 C-36.7 50 -33.4 50 -30 50 C-30 46.7 -30 43.4 -30 40 C-26.7 40 -23.4 40 -20 40 C-20 33.4 -20 26.8 -20 20 C-16.7 20 -13.4 20 -10 20 C-10 16.7 -10 13.4 -10 10 C-6.7 10 -3.4 10 0 10 C0 6.7 0 3.4 0 0 Z " fill="#1C2E36" transform="translate(410,490)"/>
<path d="M0 0 C3.3 0 6.6 0 10 0 C10 3.3 10 6.6 10 10 C13.3 10 16.6 10 20 10 C20 13.3 20 16.6 20 20 C23.3 20 26.6 20 30 20 C30 26.6 30 33.2 30 40 C33.3 40 36.6 40 40 40 C40 43.3 40 46.6 40 50 C43.3 50 46.6 50 50 50 C50 53.3 50 56.6 50 60 C53.3 60 56.6 60 60 60 C60 63.3 60 66.6 60 70 C50.1 70 40.2 70 30 70 C30 73.3 30 76.6 30 80 C20.1 80 10.2 80 0 80 C0 76.7 0 73.4 0 70 C-3.3 70 -6.6 70 -10 70 C-10 60.1 -10 50.2 -10 40 C-6.7 40 -3.4 40 0 40 C0 26.8 0 13.6 0 0 Z " fill="#1C2E36" transform="translate(220,490)"/>
<path d="M0 0 C6.6 0 13.2 0 20 0 C20 26.4 20 52.8 20 80 C16.7 80 13.4 80 10 80 C10 83.3 10 86.6 10 90 C6.7 90 3.4 90 0 90 C0 93.3 0 96.6 0 100 C-3.3 100 -6.6 100 -10 100 C-10 90.1 -10 80.2 -10 70 C-13.3 70 -16.6 70 -20 70 C-20 66.7 -20 63.4 -20 60 C-16.7 60 -13.4 60 -10 60 C-10 50.1 -10 40.2 -10 30 C-6.7 30 -3.4 30 0 30 C0 20.1 0 10.2 0 0 Z " fill="#01131A" transform="translate(360,460)"/>
<path d="M0 0 C6.6 0 13.2 0 20 0 C20 9.9 20 19.8 20 30 C23.3 30 26.6 30 30 30 C30 39.9 30 49.8 30 60 C33.3 60 36.6 60 40 60 C40 63.3 40 66.6 40 70 C36.7 70 33.4 70 30 70 C30 79.9 30 89.8 30 100 C26.7 100 23.4 100 20 100 C20 96.7 20 93.4 20 90 C16.7 90 13.4 90 10 90 C10 86.7 10 83.4 10 80 C6.7 80 3.4 80 0 80 C0 53.6 0 27.2 0 0 Z " fill="#01131A" transform="translate(260,460)"/>
<path d="M0 0 C6.6 0 13.2 0 20 0 C20 3.3 20 6.6 20 10 C23.3 10 26.6 10 30 10 C30 16.6 30 23.2 30 30 C33.3 30 36.6 30 40 30 C40 33.3 40 36.6 40 40 C33.4 40 26.8 40 20 40 C20 43.3 20 46.6 20 50 C16.7 50 13.4 50 10 50 C10 53.3 10 56.6 10 60 C6.7 60 3.4 60 0 60 C0 56.7 0 53.4 0 50 C-3.3 50 -6.6 50 -10 50 C-10 46.7 -10 43.4 -10 40 C-16.6 40 -23.2 40 -30 40 C-30 36.7 -30 33.4 -30 30 C-26.7 30 -23.4 30 -20 30 C-20 26.7 -20 23.4 -20 20 C-16.7 20 -13.4 20 -10 20 C-10 16.7 -10 13.4 -10 10 C-6.7 10 -3.4 10 0 10 C0 6.7 0 3.4 0 0 Z " fill="#C2E8FF" transform="translate(320,50)"/>
<path d="M0 0 C39.6 0 79.2 0 120 0 C120 3.3 120 6.6 120 10 C123.3 10 126.6 10 130 10 C130 13.3 130 16.6 130 20 C133.3 20 136.6 20 140 20 C140 23.3 140 26.6 140 30 C143.3 30 146.6 30 150 30 C150 33.3 150 36.6 150 40 C143.4 40 136.8 40 130 40 C130 36.7 130 33.4 130 30 C126.7 30 123.4 30 120 30 C120 26.7 120 23.4 120 20 C106.8 20 93.6 20 80 20 C80 16.7 80 13.4 80 10 C53.6 10 27.2 10 0 10 C0 6.7 0 3.4 0 0 Z " fill="#003247" transform="translate(440,0)"/>
<path d="M0 0 C39.6 0 79.2 0 120 0 C120 3.3 120 6.6 120 10 C93.6 10 67.2 10 40 10 C40 13.3 40 16.6 40 20 C26.8 20 13.6 20 0 20 C0 23.3 0 26.6 0 30 C-3.3 30 -6.6 30 -10 30 C-10 33.3 -10 36.6 -10 40 C-16.6 40 -23.2 40 -30 40 C-30 36.7 -30 33.4 -30 30 C-26.7 30 -23.4 30 -20 30 C-20 26.7 -20 23.4 -20 20 C-16.7 20 -13.4 20 -10 20 C-10 16.7 -10 13.4 -10 10 C-6.7 10 -3.4 10 0 10 C0 6.7 0 3.4 0 0 Z " fill="#003247" transform="translate(80,0)"/>
<path d="M0 0 C3.3 0 6.6 0 10 0 C10 19.8 10 39.6 10 60 C13.3 60 16.6 60 20 60 C20 63.3 20 66.6 20 70 C16.7 70 13.4 70 10 70 C10 73.3 10 76.6 10 80 C6.7 80 3.4 80 0 80 C0 83.3 0 86.6 0 90 C-3.3 90 -6.6 90 -10 90 C-10 66.9 -10 43.8 -10 20 C-6.7 20 -3.4 20 0 20 C0 13.4 0 6.8 0 0 Z " fill="#01131A" transform="translate(440,470)"/>
<path d="M0 0 C3.3 0 6.6 0 10 0 C10 6.6 10 13.2 10 20 C13.3 20 16.6 20 20 20 C20 43.1 20 66.2 20 90 C16.7 90 13.4 90 10 90 C10 86.7 10 83.4 10 80 C6.7 80 3.4 80 0 80 C0 76.7 0 73.4 0 70 C-3.3 70 -6.6 70 -10 70 C-10 66.7 -10 63.4 -10 60 C-6.7 60 -3.4 60 0 60 C0 40.2 0 20.4 0 0 Z " fill="#01131A" transform="translate(190,470)"/>
<path d="M0 0 C3.3 0 6.6 0 10 0 C10 3.3 10 6.6 10 10 C13.3 10 16.6 10 20 10 C20 16.6 20 23.2 20 30 C23.3 30 26.6 30 30 30 C30 33.3 30 36.6 30 40 C33.3 40 36.6 40 40 40 C40 53.2 40 66.4 40 80 C36.7 80 33.4 80 30 80 C30 83.3 30 86.6 30 90 C26.7 90 23.4 90 20 90 C20 76.8 20 63.6 20 50 C16.7 50 13.4 50 10 50 C10 40.1 10 30.2 10 20 C6.7 20 3.4 20 0 20 C0 13.4 0 6.8 0 0 Z " fill="#01131A" transform="translate(430,70)"/>
<path d="M0 0 C3.3 0 6.6 0 10 0 C10 6.6 10 13.2 10 20 C6.7 20 3.4 20 0 20 C0 29.9 0 39.8 0 50 C-3.3 50 -6.6 50 -10 50 C-10 63.2 -10 76.4 -10 90 C-13.3 90 -16.6 90 -20 90 C-20 86.7 -20 83.4 -20 80 C-23.3 80 -26.6 80 -30 80 C-30 66.8 -30 53.6 -30 40 C-26.7 40 -23.4 40 -20 40 C-20 36.7 -20 33.4 -20 30 C-16.7 30 -13.4 30 -10 30 C-10 23.4 -10 16.8 -10 10 C-6.7 10 -3.4 10 0 10 C0 6.7 0 3.4 0 0 Z " fill="#01131A" transform="translate(200,70)"/>
<path d="M0 0 C6.6 0 13.2 0 20 0 C20 23.1 20 46.2 20 70 C16.7 70 13.4 70 10 70 C10 73.3 10 76.6 10 80 C6.7 80 3.4 80 0 80 C0 53.6 0 27.2 0 0 Z " fill="#01131A" transform="translate(510,140)"/>
<path d="M0 0 C6.6 0 13.2 0 20 0 C20 26.4 20 52.8 20 80 C16.7 80 13.4 80 10 80 C10 76.7 10 73.4 10 70 C6.7 70 3.4 70 0 70 C0 46.9 0 23.8 0 0 Z " fill="#01131A" transform="translate(110,140)"/>
<path d="M0 0 C3.3 0 6.6 0 10 0 C10 13.2 10 26.4 10 40 C6.7 40 3.4 40 0 40 C0 46.6 0 53.2 0 60 C-13.2 60 -26.4 60 -40 60 C-40 56.7 -40 53.4 -40 50 C-36.7 50 -33.4 50 -30 50 C-30 46.7 -30 43.4 -30 40 C-26.7 40 -23.4 40 -20 40 C-20 36.7 -20 33.4 -20 30 C-16.7 30 -13.4 30 -10 30 C-10 26.7 -10 23.4 -10 20 C-6.7 20 -3.4 20 0 20 C0 13.4 0 6.8 0 0 Z " fill="#1C2E36" transform="translate(480,500)"/>
<path d="M0 0 C3.3 0 6.6 0 10 0 C10 6.6 10 13.2 10 20 C13.3 20 16.6 20 20 20 C20 23.3 20 26.6 20 30 C23.3 30 26.6 30 30 30 C30 33.3 30 36.6 30 40 C33.3 40 36.6 40 40 40 C40 43.3 40 46.6 40 50 C43.3 50 46.6 50 50 50 C50 53.3 50 56.6 50 60 C36.8 60 23.6 60 10 60 C10 53.4 10 46.8 10 40 C6.7 40 3.4 40 0 40 C0 26.8 0 13.6 0 0 Z " fill="#1C2E36" transform="translate(150,500)"/>
<path d="M0 0 C9.9 0 19.8 0 30 0 C30 6.6 30 13.2 30 20 C33.3 20 36.6 20 40 20 C40 26.6 40 33.2 40 40 C36.7 40 33.4 40 30 40 C30 36.7 30 33.4 30 30 C26.7 30 23.4 30 20 30 C20 26.7 20 23.4 20 20 C16.7 20 13.4 20 10 20 C10 26.6 10 33.2 10 40 C3.4 40 -3.2 40 -10 40 C-10 36.7 -10 33.4 -10 30 C-6.7 30 -3.4 30 0 30 C0 20.1 0 10.2 0 0 Z " fill="#005070" transform="translate(310,0)"/>
<path d="M0 0 C3.3 0 6.6 0 10 0 C10 6.6 10 13.2 10 20 C6.7 20 3.4 20 0 20 C0 29.9 0 39.8 0 50 C-3.3 50 -6.6 50 -10 50 C-10 56.6 -10 63.2 -10 70 C-13.3 70 -16.6 70 -20 70 C-20 56.8 -20 43.6 -20 30 C-16.7 30 -13.4 30 -10 30 C-10 23.4 -10 16.8 -10 10 C-6.7 10 -3.4 10 0 10 C0 6.7 0 3.4 0 0 Z " fill="#01131A" transform="translate(510,470)"/>
<path d="M0 0 C3.3 0 6.6 0 10 0 C10 3.3 10 6.6 10 10 C13.3 10 16.6 10 20 10 C20 16.6 20 23.2 20 30 C23.3 30 26.6 30 30 30 C30 43.2 30 56.4 30 70 C26.7 70 23.4 70 20 70 C20 63.4 20 56.8 20 50 C16.7 50 13.4 50 10 50 C10 40.1 10 30.2 10 20 C6.7 20 3.4 20 0 20 C0 13.4 0 6.8 0 0 Z " fill="#01131A" transform="translate(120,470)"/>
<path d="M0 0 C3.3 0 6.6 0 10 0 C10 3.3 10 6.6 10 10 C13.3 10 16.6 10 20 10 C20 13.3 20 16.6 20 20 C16.7 20 13.4 20 10 20 C10 29.9 10 39.8 10 50 C6.7 50 3.4 50 0 50 C0 33.5 0 17 0 0 Z " fill="#01131A" transform="translate(290,100)"/>
<path d="M0 0 C3.3 0 6.6 0 10 0 C10 13.2 10 26.4 10 40 C6.7 40 3.4 40 0 40 C0 26.8 0 13.6 0 0 Z " fill="#01131A" transform="translate(340,110)"/>
<path d="M0 0 C6.6 0 13.2 0 20 0 C20 3.3 20 6.6 20 10 C16.7 10 13.4 10 10 10 C10 13.3 10 16.6 10 20 C6.7 20 3.4 20 0 20 C0 13.4 0 6.8 0 0 Z " fill="#E3F4FF" transform="translate(320,70)"/>
<path d="M0 0 C3.3 0 6.6 0 10 0 C10 6.6 10 13.2 10 20 C6.7 20 3.4 20 0 20 C0 13.4 0 6.8 0 0 Z " fill="#01131A" transform="translate(480,540)"/>
<path d="M0 0 C3.3 0 6.6 0 10 0 C10 6.6 10 13.2 10 20 C6.7 20 3.4 20 0 20 C0 13.4 0 6.8 0 0 Z " fill="#01131A" transform="translate(150,540)"/>
<path d="M0 0 C3.3 0 6.6 0 10 0 C10 3.3 10 6.6 10 10 C6.7 10 3.4 10 0 10 C0 6.7 0 3.4 0 0 Z " fill="#003247" transform="translate(620,490)"/>
<path d="M0 0 C3.3 0 6.6 0 10 0 C10 3.3 10 6.6 10 10 C6.7 10 3.4 10 0 10 C0 6.7 0 3.4 0 0 Z " fill="#003247" transform="translate(10,490)"/>
<path d="M0 0 C3.3 0 6.6 0 10 0 C10 3.3 10 6.6 10 10 C6.7 10 3.4 10 0 10 C0 6.7 0 3.4 0 0 Z " fill="#003247" transform="translate(590,40)"/>
<path d="M0 0 C3.3 0 6.6 0 10 0 C10 3.3 10 6.6 10 10 C6.7 10 3.4 10 0 10 C0 6.7 0 3.4 0 0 Z " fill="#003247" transform="translate(40,40)"/>
</svg>
